# xmcd
#
# Track frame offsets:
#	150
#	13125
#	26840
#	39115
#	53496
#	68048
#	88191
#	102193
#	129201
#	143226
#	157243
#	180357
#	193341
#	212372
#	229400
#
# Disc length: 3354 seconds
#
# Revision: 1
# Processed by: cddbd v1.5.2PL0 Copyright (c) Steve Scherf et al.
# Submitted via: EasyCDDAExtractor 16.0.6.1
#
DISCID=c80d180f
DTITLE=Συλλογικός δίσκος - Πολίτικο γλέντι 1
DYEAR=2013
DGENRE=Παραδοσιακή
TTITLE0=Μητροπάνος Χρυσόστομος - Σηκώστε να χορέψουμε [παραδοσιακό]
TTITLE1=Γλυκερία - Καροτσέρη τράβα [παραδ. διασκ. Στέλ. Φωτιάδης]
TTITLE2=Σαμίου Δόμνα - Έχε γειά Παναγιά
TTITLE3=Αηδονίδης Χρόνης - Αχ! Αμάν Ελένη
TTITLE4=Κωχ Μαρίζα - Στό 'πα και στο ξαναλέω
TTITLE5=Λάλεζας Παναγιώτης - Αραμπάς περνά
TTITLE6=Άνευ ερμηνευτού - Καροτσέρης [βιολί Κυριάκος Γκουβέντας]
TTITLE7=Παπαδοπούλου Κατερίνα-Τσιαμούλης Χρ. - Από ξένο τόπο
TTITLE8=Αηδονίδης Χρόνης - Κυρ Κωστάκη έλα κοντά
TTITLE9=Καλαϊτζής Νίκος - Ήθελα να 'ρθώ το βράδυ
TTITLE10=Λάλεζας Παναγιώτης - Εγώ 'μαι ενός ψαρά παιδί
TTITLE11=Άνευ ερμηνευτού - Πολίτικος συρτός [ακορ. Λάζαρος Κουλαξίζης]
TTITLE12=Παπαδοπούλου Κατερίνα - Σάλα σάλα
TTITLE13=Άνευ ερμηνευτού - Ταταυλιανός συρτομπάλλος [βιολί Κυριάκ. Γκουβέντας]
TTITLE14=Παπαδοπούλου Κατερίνα - Ίβαλα (Μενεξέδες και ζουμπούλια)
EXTD=
EXTT0=
EXTT1=
EXTT2=
EXTT3=
EXTT4=
EXTT5=
EXTT6=
EXTT7=
EXTT8=
EXTT9=
EXTT10=
EXTT11=
EXTT12=
EXTT13=
EXTT14=
PLAYORDER=
